<svg xmlns="http://www.w3.org/2000/svg" viewBox="0 0 49.91 25.2"><defs><style>.a{fill:#63625b;}</style></defs><path class="a" d="M35.39,12.66a10.39,10.39,0,0,1-.22,2.1c-.28-.07-1.45-1.67-.53-2.73.16-.17-.31-.68-.18-.69a.84.84,0,0,1,.91.72c0,.2,0,.4,0,.6m-.29-2.41a2.13,2.13,0,0,1-.05.47.68.68,0,0,1-1.22.1c-.11-.15-.55-.57-.54.14s.7.79,0,1.22a2.46,2.46,0,0,1-1.1.43,1.43,1.43,0,0,0-.53,1.24c.08.39,1,1.47.32,1.42a4,4,0,0,1-1.61-1.39c-.22-.57-.46-1.13-.63-1.56a.62.62,0,0,0-1-.28c-.37.25.11.5-.16,1s-.46,1-.85.57c-1-1.16-2.49-.59-2.72-1.87-.12-.7-.73-.63-1.24-1s-.79-.61-.87-.32,1.59,1.55,1.71,1.89c.17.5-.5.94-1,1.06s-.71-.28-1.19-.78-.7-.86-.73-.47a2.26,2.26,0,0,0,.95,1.72c.42.26.9.38.76.81s0,.19-.48.65a1.24,1.24,0,0,0-.52,1.26c0,.64-.14.68-.24,1.21s-.34.07-.54.86A2.91,2.91,0,0,1,21,20a2.21,2.21,0,0,1-1.42.54c-.47,0-.54-1.29-.54-1.93,0-.22-.32.43-.48-.91-.11-.85-.66.09-.7-.48s-.32-.46-.61-.81-.66,0-1.06.21-.24.27-.81.1l0,0a10.12,10.12,0,0,1-.82-4c0-.35,0-.69,0-1a.61.61,0,0,1,.07-.1c.55-.64.54-.79.54-.79l.61-.21a10.48,10.48,0,0,1,1.7.42c.61.22,1.55.73,2.11.51.4-.17.71-.38.67-.71s-.37-.51-.77-.23c-.15.1-.46-.63-.7-.59s.3.85.09.89-.63-.85-.7-1-.39-.5-.68-.22c-.62.57-1.62.54-1.82.69-.61.45-.77-.15-.75-.52l.07-.25a1.26,1.26,0,0,1,1.16-.13c.27.18.47,0,.57-.15a.36.36,0,0,0,0-.42c-.07-.14.14-.25.28-.28a8.12,8.12,0,0,0,.79-.47,2.61,2.61,0,0,1,1.58,0,.84.84,0,0,0,1-.21,2.68,2.68,0,0,1,.75-.62c.15-.07-.37-.55-.8,0s-.65.58-.85.58S18.16,7.48,18,7.1s.37-.65.82-.87a10.78,10.78,0,0,1,2-.27c.63-.14,1.44-.45,1.85-.18s-1.7.74-1,1.11c.25.14,1.36-.63,1.74-.83.89-.45-.87-.61-.64-1.53S20.57,3.88,19.37,4A10.46,10.46,0,0,1,35.1,10.25M18,6a1.72,1.72,0,0,1-1.11.5c-.24,0-.34-.23-.29-.3s.58-.75.64-.82a.78.78,0,0,1,.5-.21c.16,0,.37.06.4.18A1.51,1.51,0,0,1,18,6M16.14,7.22a1.42,1.42,0,0,1,.82-.3c.26,0,.61.09.65.26s-.65.48-.78.6c-.36.33-.92,1-1.25,1.07a.46.46,0,0,1-.27,0,10,10,0,0,1,.78-1.53l.05-.07m7.42,9c-.14.23-.54,2-.8,1.76s.11-2,.18-2.15c.41-.74,1.3-.71.62.39m4.25-2.05a.93.93,0,0,1-1-.09c-.27-.2.16-.53.32-.54.35,0,.87.45.67.63m-5.89,7.85a2.32,2.32,0,0,1,2-1.23c1.69-.16,3.91,1.09,4.26.88s1.07-1.12,2.12-1.08a1.63,1.63,0,0,1,.94.24,10.45,10.45,0,0,1-9.23,1.69.41.41,0,0,1-.13-.5m10.49-7.83c-.12,0-.22-.15-.3-.4s.13-.4.34-.3.49.43.49.6-.42.14-.53.1m1.11.95a.92.92,0,0,1-1-.08c-.27-.21.16-.54.32-.55.35,0,.87.45.67.63m-2.31,4.75c-.28-.1.32-.75-.52-.2s-.61-.09-1-1a1.87,1.87,0,0,1,1.08-2.21A13.21,13.21,0,0,1,32.68,16c1.25-.31,1.51-1,1.74-.6,0,.09.09.16.12.24a1.43,1.43,0,0,1,.16.67A10.36,10.36,0,0,1,32.32,20a1.66,1.66,0,0,1-.33-.12c-.57-.29-.5.17-.78.07m18.7-7.32a2.78,2.78,0,0,0-.19-.27A30.7,30.7,0,0,0,25,0,30.71,30.71,0,0,0,.19,12.33L0,12.6l.19.28A30.71,30.71,0,0,0,25,25.2,30.7,30.7,0,0,0,49.72,12.88l.19-.28"/></svg>