<svg xmlns="http://www.w3.org/2000/svg" viewBox="0 0 39.68 33.37"><defs><style>.a{fill:#63625b;}</style></defs><path class="a" d="M32,2.55a2.78,2.78,0,0,0-.57,2A2.9,2.9,0,0,0,32.82,6.2a2.85,2.85,0,0,0,.57-2A2.94,2.94,0,0,0,32,2.55M34.13.29a2.8,2.8,0,0,0-.57,2A2.9,2.9,0,0,0,35,3.94a2.79,2.79,0,0,0,.56-2A2.9,2.9,0,0,0,34.13.29M39,2.15A3,3,0,0,0,39.68,0a3.1,3.1,0,0,0-2.17.65,3,3,0,0,0-.68,2.14A3.1,3.1,0,0,0,39,2.15M36.12,5.09a2.69,2.69,0,0,0,1.81.75,2.77,2.77,0,0,0,1.68-1A2.66,2.66,0,0,0,37.8,4a2.77,2.77,0,0,0-1.68,1m1.52,2.39A2.65,2.65,0,0,0,36,6.39a2.78,2.78,0,0,0-1.86.69,2.61,2.61,0,0,0,1.61,1.09,2.79,2.79,0,0,0,1.87-.69m-1,17.66a1,1,0,1,0,0-2H29.44a1,1,0,1,0,0,2ZM2.21,30.44V28.7a.91.91,0,0,0-.85-1H.85a.91.91,0,0,0-.85,1v1.74a.91.91,0,0,0,.85,1h.51a.91.91,0,0,0,.85-1m1.58-9.79.49.12a4.37,4.37,0,0,0-.49-.12M15.94,25c.48,0,1,0,1.43,0v3.64l-1.43,0Zm-1.36-7c-1.56.25-2,.45-4.47,2.13-2,1.31-4.71.9-5.83.65,2.05.62,4.48,2.71,6.65,3.43a16.46,16.46,0,0,0,4,.79v3.6l-12-.25v2.52l21.93-.47,4.35.46v2a.57.57,0,0,0,.58.56h6.67a.57.57,0,0,0,.58-.56V26.39a.57.57,0,0,0-.58-.56H29.7a.57.57,0,0,0-.58.56v2l-4.35.46-6.35-.14V24.91a18.85,18.85,0,0,0,2.53-.5c6.11-1.67,7.45-5.37,7.32-8.76s1-4.8,2.64-5.4a7.79,7.79,0,0,1,1.36-.35,10.37,10.37,0,0,0,.59,3l.43,0a9.93,9.93,0,0,1-.6-3,7.41,7.41,0,0,1,1.45,0,9.34,9.34,0,0,1-1.38-1,6.7,6.7,0,0,1,2.32-3.67A11.92,11.92,0,0,0,36.7,3.33l-.36-.23a11.57,11.57,0,0,1-1.57,1.78,7.29,7.29,0,0,0-2.38,3.66,14.25,14.25,0,0,1-1-1c-1.51-1.64-3.45-.43-6.22,2.07s-6.26,2.58-9.66-.79C11,4.33,7.06,4.35,4.38,4.61c1.83.76,2.47,2.42,3.4,6.65,1,4.44,3.44,6.45,6.8,6.73"/></svg>