<svg xmlns="http://www.w3.org/2000/svg" viewBox="0 0 29.4 29.06"><defs><style>.a{fill:#63625b;}</style></defs><path class="a" d="M.46,18A14.36,14.36,0,0,0,5.85,26a14.85,14.85,0,0,0,9.28,3.1,15.39,15.39,0,0,0,3.34-.4c7.72-1.83,12.43-9.26,10.5-16.6a13.23,13.23,0,0,0-2.66-5.16l0,0A13.38,13.38,0,0,1,27.35,8.7a11.91,11.91,0,0,1,1.08,9.5c-2,6.64-9.35,10.46-16.34,8.52a13.14,13.14,0,0,1-7-4.71,11.57,11.57,0,0,1-2.25-4.4C1.18,11.27,5.24,4.86,11.91,3.28A12.88,12.88,0,0,1,23.14,5.9l.08.07a.56.56,0,0,0,.28.1A.48.48,0,0,0,23.81,6l.05,0,1.58-1.48.11-.1a.4.4,0,0,0,.1-.26.46.46,0,0,0-.13-.31l-.05,0A15.87,15.87,0,0,0,11.59.43C3.4,2.37-1.58,10.25.46,18M21.8,16a.13.13,0,0,0-.14-.13H9.25a.13.13,0,0,0-.13.13V18.7a.13.13,0,0,0,.13.13H21.66a.13.13,0,0,0,.14-.13Zm0-2.35V11a.13.13,0,0,0-.14-.12H9.25a.12.12,0,0,0-.13.12v2.68a.12.12,0,0,0,.13.12H21.66a.13.13,0,0,0,.14-.12"/></svg>