<svg xmlns="http://www.w3.org/2000/svg" viewBox="0 0 31.94 43.27"><defs><style>.a{fill:#63625b;}</style></defs><path class="a" d="M19.24,17.47V14.61a.13.13,0,0,0-.13-.12H7.34a.13.13,0,0,0-.13.12v2.86a.12.12,0,0,0,.13.12H19.11a.12.12,0,0,0,.13-.12m0,5.11V19.72a.13.13,0,0,0-.13-.12H7.34a.13.13,0,0,0-.13.12v2.86a.13.13,0,0,0,.13.12H19.11a.13.13,0,0,0,.13-.12m3.64-4.09a9.7,9.7,0,1,1-9.7-9.74,9.73,9.73,0,0,1,9.7,9.74m9.06-8.26V.13A.13.13,0,0,0,31.81,0H21.75a.13.13,0,0,0-.13.13V3.49a.13.13,0,0,0,.13.13h4L21.31,8.08a13.21,13.21,0,1,0-9.83,23.53v3.87h-4a.13.13,0,0,0-.13.13v3.6a.13.13,0,0,0,.13.13h4v3.81a.12.12,0,0,0,.13.12h3.58a.12.12,0,0,0,.13-.12V39.34h4a.13.13,0,0,0,.13-.13v-3.6a.13.13,0,0,0-.13-.13h-4V31.55A13.24,13.24,0,0,0,24,10.88l4.39-4.4v3.75a.13.13,0,0,0,.13.13h3.34a.13.13,0,0,0,.13-.13"/></svg>